Coordinates
version=1
nRows=11
nColumns=36
inDegrees=yes

Units are S.I. units (second, meters, Newtons, ...)
If the header above contains a line with 'inDegrees', this indicates whether rotational values are in degrees (yes) or radians (no).

endheader
time	pelvis_tilt	pelvis_list	pelvis_rotation	pelvis_tx	pelvis_ty	pelvis_tz	hip_flexion_r	hip_adduction_r	hip_rotation_r	knee_angle_r	knee_angle_r_beta	ankle_angle_r	subtalar_angle_r	mtp_angle_r	hip_flexion_l	hip_adduction_l	hip_rotation_l	knee_angle_l	knee_angle_l_beta	ankle_angle_l	subtalar_angle_l	mtp_angle_l	lumbar_extension	lumbar_bending	lumbar_rotation	arm_flex_r	arm_add_r	arm_rot_r	elbow_flex_r	pro_sup_r	arm_flex_l	arm_add_l	arm_rot_l	elbow_flex_l	pro_sup_l
      0.00000000	    -23.09597002	      0.68830689	     -5.94290242	      0.54741490	      0.83082122	      0.11520214	     46.68929657	     -7.87156972	     -2.33161269	     27.65799603	      0.48272310	     -3.38172921	    -21.45454261	     -5.50280132	     45.13044103	    -13.57537262	     -8.82162554	     30.19206928	      0.52695102	      6.44806792	     -9.22630920	     -5.50280132	    -29.86740852	     -2.22452979	     -0.22486824	     13.58234952	    -12.77780468	     30.47805801	     55.75754995	     85.54675697	      7.11588726	    -13.34945372	     21.52106330	     57.14737665	     81.28717571
      0.01666670	    -23.85762560	      1.52364134	     -6.09368910	      0.55311744	      0.82997145	      0.11904283	     46.90837509	     -8.86160012	     -3.80763567	     27.40984900	      0.47839211	      2.43725304	    -16.87924029	     -5.75964844	     44.69778510	    -13.82779419	    -12.59651042	     28.36165786	      0.49500431	      7.94416470	     -5.74293867	     -5.75964844	    -26.91062191	     -3.58360253	     -0.06469836	     14.76943247	    -11.43040307	     35.30436259	     49.04682665	     85.33216437	      8.78035962	    -14.36421427	     26.42672965	     53.83614895	     81.92273239
      0.03333330	    -23.89866320	      1.77324753	     -6.27655959	      0.55605054	      0.83455617	      0.11729110	     46.39174340	     -9.08689253	     -5.07912670	     26.17014377	      0.45675517	      2.83165548	    -16.38059795	     -5.85845232	     44.08784430	    -13.77993510	    -14.53977472	     27.38004444	      0.47787192	      7.40300930	     -6.07261668	     -5.85845232	    -26.15214288	     -4.30234190	     -0.02216895	     16.16306014	    -10.93859885	     40.14946483	     45.06328703	     85.42878494	     10.51336760	    -14.95073854	     30.46178099	     51.54737928	     82.46992673
      0.05000000	    -23.61298504	      1.59479607	     -6.47939888	      0.55618614	      0.83793338	      0.11778517	     45.34231066	     -8.88820109	     -5.62282661	     25.17090341	      0.43931514	      3.14927706	    -15.29401915	     -5.91060961	     42.83235938	    -13.85858850	    -15.89827346	     25.64435380	      0.44757841	      7.24355950	     -5.74356050	     -5.91060961	    -26.10402309	     -4.26233320	      0.27318417	     17.07494671	    -10.36042528	     43.41278382	     42.33610805	     85.45187429	     11.83491634	    -14.87290447	     32.77264217	     49.48126919	     83.24704110
      0.06666670	    -23.67221398	      1.64221895	     -6.82473540	      0.55572846	      0.83676854	      0.11746073	     45.12735743	     -8.68077890	     -5.58269400	     24.58860541	      0.42915212	      3.09975636	    -15.17028822	     -6.06963973	     42.40226915	    -13.69670718	    -16.61735734	     24.66176488	      0.43042900	      7.15302081	     -5.75837452	     -6.06963973	    -25.87648279	     -4.23946279	      0.55769382	     17.38142988	     -9.71006435	     44.87888776	     41.02068409	     84.65700772	     12.13640511	    -14.35893564	     33.80472251	     47.93200077	     82.98586392
      0.08333330	    -24.13366816	      1.61172533	     -7.10639729	      0.55178177	      0.83667604	      0.11965172	     45.41148482	     -8.19963646	     -5.35553689	     23.89330213	      0.41701679	      2.90341198	    -14.60165965	     -6.07878155	     42.62419527	    -13.83111177	    -17.09654620	     23.93684835	      0.41777682	      7.07942669	     -5.78436226	     -6.07878155	    -25.44141868	     -4.13452472	      0.55722955	     17.54182379	     -9.29106099	     45.24442997	     40.98443594	     84.67065056	     11.67680381	    -14.32644877	     34.25565145	     47.22967331	     83.09981567
      0.10000000	    -24.69081878	      1.74435750	     -7.25820920	      0.55219455	      0.83905464	      0.12027075	     45.83318146	     -8.06855434	     -5.45361032	     23.40430334	      0.40848215	      2.81428408	    -13.48037659	     -6.24622108	     42.94150173	    -13.72334441	    -17.38725145	     23.22117731	      0.40528600	      6.52287094	     -5.66629720	     -6.24622108	    -24.52214772	     -4.19662052	      0.87472456	     18.29958470	     -8.77157176	     47.94851533	     39.16297268	     84.40652506	     12.45250483	    -13.70920683	     37.13676538	     43.90489226	     83.97609404
      0.11666670	    -25.02462110	      1.82010231	     -7.45374285	      0.55255045	      0.83712551	      0.11990119	     46.06902892	     -7.86619617	     -5.20119209	     23.13950858	      0.40386061	      2.62624367	    -13.28066743	     -6.35258597	     43.15588611	    -13.73487605	    -17.71829695	     22.75943658	      0.39722710	      6.30224563	     -5.51709915	     -6.35258597	    -23.94440750	     -4.19927148	      1.02336157	     18.51142149	     -8.36686510	     48.26420234	     38.56907775	     83.74970458	     12.50049087	    -13.28190931	     37.86019864	     42.49401946	     83.58415953
      0.13333330	    -25.14050561	      2.01954443	     -7.63945480	      0.55673814	      0.84048462	      0.11874023	     45.71671750	     -7.96868433	     -5.18219619	     22.47780147	      0.39231164	      2.14882795	    -12.61676930	     -6.40024121	     42.74873318	    -13.50635633	    -18.12130023	     21.98273312	      0.38367107	      5.75106132	     -5.57611603	     -6.40024121	    -23.42127370	     -4.11058466	      1.27463295	     18.66034530	     -8.18311215	     48.79347902	     38.08813714	     83.83547151	     12.84973531	    -12.73607881	     39.30772134	     40.62227845	     83.87365072
      0.15000000	    -25.00182102	      2.30604864	     -7.83063855	      0.56096114	      0.84325887	      0.11695130	     44.97090190	     -8.22478066	     -5.16672637	     21.77749434	      0.38008898	      1.69682167	    -12.40904908	     -6.39046544	     41.81165096	    -13.04852444	    -18.64787090	     20.82718975	      0.36350304	      5.19179087	     -5.30922577	     -6.39046544	    -23.14996672	     -4.18850847	      1.38083723	     18.62275871	     -7.94833770	     48.91220962	     37.92324042	     83.78577859	     12.79324288	    -12.30865184	     39.68396176	     39.74732905	     83.79698828
      0.16666670	    -25.07368409	      2.48701290	     -7.87363540	      0.56093860	      0.84516796	      0.11798233	     44.46002788	     -8.29195980	     -4.62293500	     20.99514121	      0.36643434	      1.97012332	    -11.75659092	     -6.38749689	     41.39931512	    -12.73270371	    -18.82760186	     20.09737133	      0.35076530	      4.84368356	     -5.20066461	     -6.38749689	    -22.76672943	     -4.25035524	      1.37088610	     18.40664837	     -7.71321366	     48.75297629	     38.22205811	     83.41923184	     12.67219434	    -12.13987547	     39.72044341	     39.59465784	     83.39286650
